<svg xmlns="http://www.w3.org/2000/svg" xmlns:xlink="http://www.w3.org/1999/xlink" width="192" height="192" version="1.1" style=""><rect id="backgroundrect" width="100%" height="100%" x="0" y="0" fill="none" stroke="none"/>

<g class="currentLayer" style=""><title>Layer 1</title><g id="surface1" class="selected" fill="#3a4b5e" fill-opacity="1">
<path style="stroke: none; fill-rule: nonzero;" d="M144.5291005373001,105.601562 L144.5291005373001,76.800781 L103.72831953730011,52.320312 L103.72831953730011,40.800781 L120.52910053730011,40.800781 L120.52910053730011,26.398438 L103.72831953730011,26.398438 L103.72831953730011,9.601562 L89.32988153730011,9.601562 L89.32988153730011,26.398438 L72.52910053730011,26.398438 L72.52910053730011,40.800781 L89.32988153730011,40.800781 L89.32988153730011,52.320312 L48.52910053730011,76.800781 L48.52910053730011,105.601562 L19.72831953730011,115.199219 L19.72831953730011,172.800781 L86.92753853730011,172.800781 L86.92753853730011,144 C86.92753853730011,138.71875 91.24785053730011,134.398438 96.52910053730011,134.398438 C101.81035053730011,134.398438 106.13066253730011,138.71875 106.13066253730011,144 L106.13066253730011,172.800781 L173.3298815373001,172.800781 L173.3298815373001,115.199219 zM158.9275385373001,158.398438 L120.52910053730011,158.398438 L120.52910053730011,144 C120.52910053730011,130.753906 109.77519453730011,120 96.52910053730011,120 C83.28300653730011,120 72.52910053730011,130.753906 72.52910053730011,144 L72.52910053730011,158.398438 L34.13066253730011,158.398438 L34.13066253730011,125.566406 L62.92753853730011,115.96875 L62.92753853730011,84.960938 L96.52910053730011,64.800781 L130.1306625373001,84.960938 L130.1306625373001,115.96875 L158.9275385373001,125.566406 zM158.9275385373001,158.398438 " id="svg_1" fill="#3a4b5e" fill-opacity="1"/>
<path style="stroke: none; fill-rule: nonzero;" d="M108.52910053730011,96 C108.52910053730011,102.628906 103.15800653730011,108 96.52910053730011,108 C89.90019453730011,108 84.52910053730011,102.628906 84.52910053730011,96 C84.52910053730011,89.371094 89.90019453730011,84 96.52910053730011,84 C103.15800653730011,84 108.52910053730011,89.371094 108.52910053730011,96 zM108.52910053730011,96 " id="svg_2" fill="#3a4b5e" fill-opacity="1"/>
</g></g></svg>